STARTFONT 2.1
FONT -MIT-40VGL KST-Medium-R-Normal--40-14-200-200-P-19-ISO8859-1
SIZE 14 200 200
FONTBOUNDINGBOX 35 40 -7 -8
STARTPROPERTIES 17
ADD_STYLE_NAME ""
AVERAGE_WIDTH 19
CHARSET_ENCODING "1"
CHARSET_REGISTRY "ISO8859"
DEFAULT_CHAR 0
FAMILY "40VGL KST"
FONT_ASCENT 32
FONT_DESCENT 8
FOUNDRY "MIT"
PIXEL_SIZE 40
POINT_SIZE 14
RESOLUTION_X 200
RESOLUTION_Y 200
SETWIDTH_NAME "Normal"
SLANT "R"
SPACING "P"
WEIGHT_NAME "Medium"
ENDPROPERTIES
CHARS 121
STARTCHAR char1
ENCODING 1
SWIDTH 994 0
DWIDTH 14 0
BBX 12 40 0 -8
BITMAP
0000
0000
0000
0000
0000
0000
0000
0000
0000
0600
0600
0600
0600
0600
0600
0600
0600
0600
0600
0600
0600
0600
0600
0600
0600
C630
E670
76E0
3FC0
1F80
0F00
0600
0000
0000
0000
0000
0000
0000
0000
0000
ENDCHAR
STARTCHAR char2
ENCODING 2
SWIDTH 1988 0
DWIDTH 28 0
BBX 26 40 0 -8
BITMAP
00000000
00000000
00000000
00000000
00000000
00000000
00000000
00000000
00000000
00000000
00000000
00000000
00000000
00000000
00000380
00000700
00000E00
00001C00
00001C00
0FC03800
1FE07000
3FF06000
7078E000
E01FC000
E00FC000
E0078000
E00F0000
E01F8000
707BC1C0
3FF1E380
1FE0FF80
0FC07E00
00000000
00000000
00000000
00000000
00000000
00000000
00000000
00000000
ENDCHAR
STARTCHAR char3
ENCODING 3
SWIDTH 1775 0
DWIDTH 25 0
BBX 23 40 0 -8
BITMAP
000000
000000
000000
0000F0
0001F8
00039C
00070E
000E06
001C06
00380E
00380E
00701C
007038
00E070
00E0E0
01C1C0
01C3C0
0383E0
0380F0
070038
07001C
0E000C
0E000C
0C000C
1C400C
1C701C
387878
383FF0
380FC0
780000
700000
700000
700000
F00000
000000
000000
000000
000000
000000
000000
ENDCHAR
STARTCHAR char4
ENCODING 4
SWIDTH 1704 0
DWIDTH 24 0
BBX 21 40 0 -8
BITMAP
000000
000000
000000
000000
000000
000000
000000
000000
000000
000000
000000
000000
007000
00F800
00F800
01FC00
01DC00
03DE00
038E00
078F00
070700
0F0780
0E0380
1E03C0
1C01C0
3C01E0
3800E0
7800F0
700070
F00078
E00038
E00038
000000
000000
000000
000000
000000
000000
000000
000000
ENDCHAR
STARTCHAR char5
ENCODING 5
SWIDTH 1065 0
DWIDTH 15 0
BBX 13 40 0 -8
BITMAP
0000
0000
0000
0000
0000
0000
0000
0000
0000
0000
0000
0000
0000
0000
0000
0000
0000
0000
FFF8
FFF8
FFF8
0038
0038
0038
0038
0038
0000
0000
0000
0000
0000
0000
0000
0000
0000
0000
0000
0000
0000
0000
ENDCHAR
STARTCHAR char6
ENCODING 6
SWIDTH 994 0
DWIDTH 14 0
BBX 12 40 0 -8
BITMAP
0000
0000
0000
0000
0000
0000
0000
0000
0000
0000
00F0
03F0
0780
0E00
1C00
3800
7800
7000
7000
F000
FFF0
FFF0
F000
7000
7000
7800
3800
1C00
0E00
0780
03F0
00F0
0000
0000
0000
0000
0000
0000
0000
0000
ENDCHAR
STARTCHAR char7
ENCODING 7
SWIDTH 1420 0
DWIDTH 20 0
BBX 18 40 0 -8
BITMAP
000000
000000
000000
000000
000000
000000
000000
000000
000000
000000
000000
FFF800
FFFF00
FFFF80
1C1FC0
1C1C00
1C1C00
1C1C00
1C1C00
1C1C00
1C1C00
1C1C00
1C1C00
1C1C00
1C1C00
1C1C00
FC1C00
FC1FC0
000FC0
000000
000000
000000
000000
000000
000000
000000
000000
000000
000000
000000
ENDCHAR
STARTCHAR char8
ENCODING 8
SWIDTH 1420 0
DWIDTH 20 0
BBX 18 40 0 -8
BITMAP
000000
000000
000000
000000
000000
700000
7C0000
3E0000
0E0000
070000
038000
038000
03C000
01C000
01C000
01C000
03E000
03E000
077000
0E7800
0E3800
1C3C00
3C1C00
781E00
F00F00
E007C0
E003C0
0001C0
000000
000000
000000
000000
000000
000000
000000
000000
000000
000000
000000
000000
ENDCHAR
STARTCHAR char11
ENCODING 11
SWIDTH 923 0
DWIDTH 13 0
BBX 11 40 0 -8
BITMAP
0000
0000
0E00
1F00
3F80
7FC0
EEE0
CE60
8E20
0E00
0E00
0E00
0E00
0E00
0E00
0E00
0E00
0E00
0E00
0E00
0E00
0E00
0E00
0E00
0E00
0E00
0E00
0E00
0E00
0E00
0E00
0E00
0E00
0E00
0000
0000
0000
0000
0000
0000
ENDCHAR
STARTCHAR char14
ENCODING 14
SWIDTH 2059 0
DWIDTH 29 0
BBX 27 40 0 -8
BITMAP
00000000
00000000
00000000
00000000
00000000
00000000
00000000
00000000
00000000
00000000
00000000
00000000
00000000
00000000
00000000
0FC07E00
1FE0FF00
38F1E380
707BC1C0
E03F80E0
C01F0060
C00E0060
C00E0060
C00E0060
C01F0060
E03F80E0
707BC1C0
38F1E380
1FE0FF00
0FC07E00
00000000
00000000
00000000
00000000
00000000
00000000
00000000
00000000
00000000
00000000
ENDCHAR
STARTCHAR char15
ENCODING 15
SWIDTH 1349 0
DWIDTH 19 0
BBX 17 40 0 -8
BITMAP
000000
000000
700000
780000
7C0000
3E0000
1F0000
0F8000
07C000
01E000
00F000
00F800
007C00
003C00
003E00
001E00
000F00
000F00
000700
07E700
0FFF00
3FFF80
7C1F80
F00780
E00380
E00380
E00380
E00380
E00380
700700
7C1F00
3FFE00
0FF800
07F000
000000
000000
000000
000000
000000
000000
ENDCHAR
STARTCHAR char16
ENCODING 16
SWIDTH 1491 0
DWIDTH 21 0
BBX 19 40 0 -8
BITMAP
000000
000000
000000
000000
000000
000000
000000
000000
000000
000000
000000
000000
000000
000000
000000
0FFFE0
1FFFE0
3FFFE0
780000
F00000
E00000
E00000
E00000
E00000
F00000
780000
3FFFE0
1FFFE0
0FFFE0
000000
000000
000000
000000
000000
000000
000000
000000
000000
000000
000000
ENDCHAR
STARTCHAR char17
ENCODING 17
SWIDTH 1491 0
DWIDTH 21 0
BBX 19 40 0 -8
BITMAP
000000
000000
000000
000000
000000
000000
000000
000000
000000
000000
000000
000000
000000
000000
000000
FFFE00
FFFF00
FFFF80
0003C0
0001E0
0000E0
0000E0
0000E0
0000E0
0001E0
0003C0
FFFF80
FFFF00
FFFE00
000000
000000
000000
000000
000000
000000
000000
000000
000000
000000
000000
ENDCHAR
STARTCHAR char18
ENCODING 18
SWIDTH 1136 0
DWIDTH 16 0
BBX 14 40 0 -8
BITMAP
0000
0000
0000
0000
0000
0000
0000
0000
0000
0000
0000
0000
0000
0000
0FC0
1FE0
3FF0
7878
F03C
E01C
E01C
E01C
E01C
E01C
E01C
E01C
E01C
E01C
E01C
E01C
E01C
E01C
0000
0000
0000
0000
0000
0000
0000
0000
ENDCHAR
STARTCHAR char19
ENCODING 19
SWIDTH 1136 0
DWIDTH 16 0
BBX 14 40 0 -8
BITMAP
0000
0000
0000
0000
0000
0000
0000
0000
0000
0000
0000
0000
0000
0000
E01C
E01C
E01C
E01C
E01C
E01C
E01C
E01C
E01C
E01C
E01C
E01C
E01C
F03C
7878
3FF0
1FE0
0FC0
0000
0000
0000
0000
0000
0000
0000
0000
ENDCHAR
STARTCHAR char20
ENCODING 20
SWIDTH 1420 0
DWIDTH 20 0
BBX 18 40 0 -8
BITMAP
000000
000000
000000
000000
000000
000000
000000
E001C0
E001C0
E001C0
700380
700380
700380
380700
380700
380700
1FFF00
1FFE00
1FFE00
0E1C00
0E1C00
0E1C00
073800
073800
073800
03F000
03F000
03F000
01E000
01E000
00C000
00C000
000000
000000
000000
000000
000000
000000
000000
000000
ENDCHAR
STARTCHAR char21
ENCODING 21
SWIDTH 1278 0
DWIDTH 18 0
BBX 16 40 0 -8
BITMAP
0000
0000
0000
0000
0000
0000
FFFF
FFFF
FFFF
0007
0007
0007
0007
0007
0007
0007
0007
07FF
07FF
07FF
0007
0007
0007
0007
0007
0007
0007
0007
0007
FFFF
FFFF
FFFF
0000
0000
0000
0000
0000
0000
0000
0000
ENDCHAR
STARTCHAR char22
ENCODING 22
SWIDTH 1420 0
DWIDTH 20 0
BBX 18 40 0 -8
BITMAP
000000
000000
000000
000000
000000
000000
000000
000000
000000
000000
000000
000000
000000
000000
03F000
0FFC00
1C0E00
380700
780780
7C0F80
E739C0
C3F0C0
C0C0C0
C0C0C0
C3F0C0
E739C0
7C0F80
780780
380700
1C0E00
0FFC00
03F000
000000
000000
000000
000000
000000
000000
000000
000000
ENDCHAR
STARTCHAR char23
ENCODING 23
SWIDTH 1846 0
DWIDTH 26 0
BBX 24 40 0 -8
BITMAP
000000
000000
000000
000000
000000
000000
000000
000000
000000
000000
000000
000000
000000
000000
000000
018180
0381C0
0700E0
0E0070
1C0038
38001C
7FFFFE
FFFFFF
7FFFFE
38001C
1C0038
0E0070
0700E0
0381C0
018180
000000
000000
000000
000000
000000
000000
000000
000000
000000
000000
ENDCHAR
STARTCHAR char24
ENCODING 24
SWIDTH 1846 0
DWIDTH 26 0
BBX 23 40 0 -8
BITMAP
000000
000000
000000
000000
000000
000000
000000
000000
000000
000000
000000
000000
000000
000000
060000
0E0000
1C0000
380000
700000
FFFFFE
FFFFFE
700000
380000
1C0000
0E0000
060000
000000
000000
000000
000000
000000
000000
000000
000000
000000
000000
000000
000000
000000
000000
ENDCHAR
STARTCHAR char25
ENCODING 25
SWIDTH 1633 0
DWIDTH 23 0
BBX 21 40 0 -8
BITMAP
000000
000000
000000
000000
000000
000000
000000
000000
000000
000000
000000
000000
000000
000000
000000
000C00
000E00
000700
000380
0001C0
0000E0
FFFFF0
FFFFF8
FFFFF0
0000E0
0001C0
000380
000700
000E00
000C00
000000
000000
000000
000000
000000
000000
000000
000000
000000
000000
ENDCHAR
STARTCHAR char26
ENCODING 26
SWIDTH 1420 0
DWIDTH 20 0
BBX 18 40 0 -8
BITMAP
000000
000000
000000
000000
000000
000700
000700
000F00
000E00
001E00
001C00
003C00
003800
FFFFC0
FFFFC0
FFFFC0
00E000
01E000
01C000
FFFFC0
FFFFC0
FFFFC0
070000
0F0000
0E0000
1E0000
1C0000
3C0000
380000
380000
000000
000000
000000
000000
000000
000000
000000
000000
000000
000000
ENDCHAR
STARTCHAR char27
ENCODING 27
SWIDTH 1633 0
DWIDTH 23 0
BBX 20 40 0 -8
BITMAP
000000
000000
000000
006000
006000
006000
00F000
00F000
01F800
01F800
03FC00
079E00
0F0F00
1E0780
3E03C0
F801F0
F801F0
3C03C0
1E0780
0F0F00
079E00
03FC00
01F800
01F800
00F000
00F000
006000
006000
006000
000000
000000
000000
000000
000000
000000
000000
000000
000000
000000
000000
ENDCHAR
STARTCHAR char28
ENCODING 28
SWIDTH 1420 0
DWIDTH 20 0
BBX 18 40 0 -8
BITMAP
000000
000000
000000
000000
000000
000000
000000
000000
000000
0001C0
0007C0
001F80
007E00
01F800
07E000
1F8000
7E0000
F80000
7E0000
1F8000
07E000
01F800
007E00
001F80
0007C0
0001C0
000000
000000
000000
FFFFC0
FFFFC0
FFFFC0
000000
000000
000000
000000
000000
000000
000000
000000
ENDCHAR
STARTCHAR char29
ENCODING 29
SWIDTH 1420 0
DWIDTH 20 0
BBX 18 40 0 -8
BITMAP
000000
000000
000000
000000
000000
000000
000000
000000
000000
E00000
F80000
7E0000
1F8000
07E000
01F800
007E00
001F80
0007C0
001F80
007E00
01F800
07E000
1F8000
7E0000
F80000
E00000
000000
000000
000000
FFFFC0
FFFFC0
FFFFC0
000000
000000
000000
000000
000000
000000
000000
000000
ENDCHAR
STARTCHAR char30
ENCODING 30
SWIDTH 1065 0
DWIDTH 15 0
BBX 13 40 0 -8
BITMAP
0000
0000
0000
0000
0000
0000
0000
0000
0000
0000
0000
0000
0000
0000
0000
0000
FFF8
FFF8
FFF8
0000
0000
FFF8
FFF8
FFF8
0000
0000
FFF8
FFF8
FFF8
0000
0000
0000
0000
0000
0000
0000
0000
0000
0000
0000
ENDCHAR
STARTCHAR char31
ENCODING 31
SWIDTH 1491 0
DWIDTH 21 0
BBX 19 40 0 -8
BITMAP
000000
000000
000000
000000
000000
000000
000000
000000
000000
000000
000000
000000
000000
E000E0
E000E0
7001C0
7001C0
380380
380380
1C0700
1C0700
0E0E00
0E0E00
071C00
071C00
03B800
03B800
01F000
01F000
00E000
00E000
004000
000000
000000
000000
000000
000000
000000
000000
000000
ENDCHAR
STARTCHAR char32
ENCODING 32
SWIDTH 1136 0
DWIDTH 16 0
BBX 1 40 0 -8
BITMAP
00
00
00
00
00
00
00
00
00
00
00
00
00
00
00
00
00
00
00
00
00
00
00
00
00
00
00
00
00
00
00
00
00
00
00
00
00
00
00
00
ENDCHAR
STARTCHAR char33
ENCODING 33
SWIDTH 568 0
DWIDTH 8 0
BBX 6 40 0 -8
BITMAP
00
00
30
78
FC
FC
FC
FC
FC
FC
78
78
78
78
78
78
78
78
30
30
30
30
30
00
00
00
30
78
FC
FC
78
30
00
00
00
00
00
00
00
00
ENDCHAR
STARTCHAR char34
ENCODING 34
SWIDTH 781 0
DWIDTH 11 0
BBX 8 40 1 -8
BITMAP
00
00
E7
E7
E7
E7
E7
E7
E7
E7
00
00
00
00
00
00
00
00
00
00
00
00
00
00
00
00
00
00
00
00
00
00
00
00
00
00
00
00
00
00
ENDCHAR
STARTCHAR char35
ENCODING 35
SWIDTH 1562 0
DWIDTH 22 0
BBX 20 40 0 -8
BITMAP
000000
000000
000000
000000
000000
000000
000000
000000
000000
000000
000000
000000
000000
00E380
00E380
01E780
01C700
3FFFF0
7FFFF0
7FFFE0
038E00
079E00
071C00
7FFFE0
FFFFE0
FFFFC0
0E3800
1E7800
1C7000
1C7000
000000
000000
000000
000000
000000
000000
000000
000000
000000
000000
ENDCHAR
STARTCHAR char36
ENCODING 36
SWIDTH 1349 0
DWIDTH 19 0
BBX 17 40 0 -8
BITMAP
000000
000000
033000
033000
03F000
0FFC00
1F3E00
3B3700
333300
733780
633780
633780
633700
733000
733000
3F3000
3FF000
3FF000
1FFC00
0FFE00
03FF00
033F00
033F00
033380
033380
733180
F33180
F33180
F33380
633300
733700
3F3E00
1FFC00
03F000
033000
033000
033000
033000
000000
000000
ENDCHAR
STARTCHAR char37
ENCODING 37
SWIDTH 1491 0
DWIDTH 21 0
BBX 19 40 0 -8
BITMAP
000000
000000
000000
000000
00FF80
01FF80
018380
038380
3B0780
7E0700
EE0F00
C60E00
C61E00
EE1C00
7C3C00
383800
007800
007000
00F000
00E000
01E000
01C000
03C000
038000
078380
0707C0
0F0EE0
0E0C60
1E0C60
1C0EE0
3C07C0
380380
000000
000000
000000
000000
000000
000000
000000
000000
ENDCHAR
STARTCHAR char38
ENCODING 38
SWIDTH 1704 0
DWIDTH 24 0
BBX 23 40 0 -8
BITMAP
000000
000000
000000
01FC00
03FE00
070F00
0E0700
0E0700
0E0700
0E0700
0F0F00
070F00
079E00
03FC00
01F8FC
01F0FC
03F030
07F030
1E7830
3C7870
783C60
783C60
F01EE0
F01EC0
F00FC0
F00F80
F80F80
781FC0
7C3FE0
3FFBF0
1FF1FC
07E0FE
000000
000000
000000
000000
000000
000000
000000
000000
ENDCHAR
STARTCHAR char39
ENCODING 39
SWIDTH 568 0
DWIDTH 8 0
BBX 6 40 0 -8
BITMAP
00
00
00
30
78
FC
FC
7C
3C
0C
1C
18
18
10
00
00
00
00
00
00
00
00
00
00
00
00
00
00
00
00
00
00
00
00
00
00
00
00
00
00
ENDCHAR
STARTCHAR char40
ENCODING 40
SWIDTH 710 0
DWIDTH 10 0
BBX 8 40 0 -8
BITMAP
00
00
03
07
0E
1C
1C
38
38
38
70
70
70
70
E0
E0
E0
E0
E0
E0
E0
E0
70
70
70
70
38
38
38
1C
1C
0E
07
03
00
00
00
00
00
00
ENDCHAR
STARTCHAR char41
ENCODING 41
SWIDTH 710 0
DWIDTH 10 0
BBX 8 40 0 -8
BITMAP
00
00
C0
E0
70
38
38
1C
1C
1C
0E
0E
0E
0E
07
07
07
07
07
07
07
07
0E
0E
0E
0E
1C
1C
1C
38
38
70
E0
C0
00
00
00
00
00
00
ENDCHAR
STARTCHAR char42
ENCODING 42
SWIDTH 1136 0
DWIDTH 16 0
BBX 14 40 0 -8
BITMAP
0000
0000
0000
0000
0000
0000
0000
0000
0000
0000
0000
0000
0000
0300
0300
0780
0780
F33C
F33C
FB7C
1FF0
0780
0780
1FF0
FB7C
F33C
F33C
0780
0780
0300
0300
0000
0000
0000
0000
0000
0000
0000
0000
0000
ENDCHAR
STARTCHAR char43
ENCODING 43
SWIDTH 1278 0
DWIDTH 18 0
BBX 15 40 1 -8
BITMAP
0000
0000
0000
0000
0000
0000
0000
0000
0000
0000
0000
0000
0000
0000
0380
0380
0380
0380
0380
0380
FFFE
FFFE
FFFE
0380
0380
0380
0380
0380
0380
0380
0000
0000
0000
0000
0000
0000
0000
0000
0000
0000
ENDCHAR
STARTCHAR char44
ENCODING 44
SWIDTH 497 0
DWIDTH 7 0
BBX 5 40 0 -8
BITMAP
00
00
00
00
00
00
00
00
00
00
00
00
00
00
00
00
00
00
00
00
00
00
00
00
00
00
00
00
30
78
78
38
38
70
E0
C0
00
00
00
00
ENDCHAR
STARTCHAR char45
ENCODING 45
SWIDTH 994 0
DWIDTH 14 0
BBX 11 40 1 -8
BITMAP
0000
0000
0000
0000
0000
0000
0000
0000
0000
0000
0000
0000
0000
0000
0000
0000
0000
0000
0000
0000
FFE0
FFE0
FFE0
0000
0000
0000
0000
0000
0000
0000
0000
0000
0000
0000
0000
0000
0000
0000
0000
0000
ENDCHAR
STARTCHAR char46
ENCODING 46
SWIDTH 497 0
DWIDTH 7 0
BBX 4 40 1 -8
BITMAP
00
00
00
00
00
00
00
00
00
00
00
00
00
00
00
00
00
00
00
00
00
00
00
00
00
00
00
00
60
F0
F0
60
00
00
00
00
00
00
00
00
ENDCHAR
STARTCHAR char47
ENCODING 47
SWIDTH 994 0
DWIDTH 14 0
BBX 12 40 0 -8
BITMAP
0000
0000
0070
0070
0070
00F0
00E0
00E0
01E0
01C0
01C0
03C0
0380
0380
0780
0700
0700
0F00
0E00
0E00
1E00
1C00
1C00
3C00
3800
3800
7800
7000
7000
F000
E000
E000
E000
0000
0000
0000
0000
0000
0000
0000
ENDCHAR
STARTCHAR char48
ENCODING 48
SWIDTH 1846 0
DWIDTH 26 0
BBX 23 40 1 -8
BITMAP
000000
000000
00FE1E
03FF9E
07FFFC
0FC7F8
1F01F8
1E00F0
3C01F8
3803F8
3803F8
7807BC
780F3C
700F1C
701E1C
703C1C
703C1C
70781C
70F01C
70F01C
71E01C
7BC03C
7BC03C
3F8038
3F0038
3F0078
1E00F0
3F01F0
3FC7E0
7FFFC0
F3FF80
E0FE00
000000
000000
000000
000000
000000
000000
000000
000000
ENDCHAR
STARTCHAR char49
ENCODING 49
SWIDTH 1846 0
DWIDTH 26 0
BBX 13 40 7 -8
BITMAP
0000
0000
0F00
3F00
FF00
FF00
0700
0700
0700
0700
0700
0700
0700
0700
0700
0700
0700
0700
0700
0700
0700
0700
0700
0700
0700
0700
0700
0700
0700
FFF8
FFF8
FFF8
0000
0000
0000
0000
0000
0000
0000
0000
ENDCHAR
STARTCHAR char50
ENCODING 50
SWIDTH 1846 0
DWIDTH 26 0
BBX 19 40 4 -8
BITMAP
000000
000000
03F800
1FFF00
3FFF00
7F1F80
F807C0
F003E0
E001E0
E000E0
E000E0
0000E0
0001E0
0003E0
000FC0
001F80
007F00
00FE00
01F800
03F000
07E000
0FC000
1F8000
3F0000
7E0000
7C0000
F80000
F00000
F00000
FFFFE0
FFFFE0
FFFFE0
000000
000000
000000
000000
000000
000000
000000
000000
ENDCHAR
STARTCHAR char51
ENCODING 51
SWIDTH 1846 0
DWIDTH 26 0
BBX 21 40 2 -8
BITMAP
000000
000000
03FE00
0FFFC0
1FFFE0
3F07F0
7C00F8
F80078
F00078
F00038
E00038
000078
000078
0000F0
0003E0
03FFC0
03FF00
03FFC0
0003E0
0000F0
000078
000078
E00038
E00038
E00038
F00078
F00078
7800F8
3F07F0
1FFFE0
0FFFC0
01FE00
000000
000000
000000
000000
000000
000000
000000
000000
ENDCHAR
STARTCHAR char52
ENCODING 52
SWIDTH 1846 0
DWIDTH 26 0
BBX 23 40 2 -8
BITMAP
000000
000000
001FE0
003FE0
003FE0
0078E0
00F0E0
01E0E0
01E0E0
03C0E0
0780E0
0780E0
0F00E0
1E00E0
1E00E0
3C00E0
7800E0
7800E0
F000E0
E000E0
E000E0
FFFFFE
FFFFFE
FFFFFE
0000E0
0000E0
0000E0
0000E0
0000E0
0000E0
0000E0
0000E0
000000
000000
000000
000000
000000
000000
000000
000000
ENDCHAR
STARTCHAR char53
ENCODING 53
SWIDTH 1846 0
DWIDTH 26 0
BBX 20 40 3 -8
BITMAP
000000
000000
FFFFE0
FFFFE0
FFFFE0
E00000
E00000
E00000
E00000
E00000
E00000
E3FE00
E7FF00
EFFF80
FF0FC0
FC03E0
F801E0
F000F0
F000F0
000070
000070
000070
000070
000070
000070
0000F0
E001F0
F001E0
FC07E0
7FFFC0
3FFF80
0FFF00
000000
000000
000000
000000
000000
000000
000000
000000
ENDCHAR
STARTCHAR char54
ENCODING 54
SWIDTH 1846 0
DWIDTH 26 0
BBX 20 40 3 -8
BITMAP
000000
000000
03FC00
0FFF80
0FFFC0
1F07C0
1C01C0
3C0000
780000
780000
700000
F00000
F00000
E3FC00
E7FE00
EFFF80
FE07C0
FC03E0
F801E0
F000F0
F000F0
E00070
E00070
E00070
F000F0
F000F0
7801E0
7C03E0
7E07C0
1FFF80
0FFF00
03FC00
000000
000000
000000
000000
000000
000000
000000
000000
ENDCHAR
STARTCHAR char55
ENCODING 55
SWIDTH 1846 0
DWIDTH 26 0
BBX 18 40 4 -8
BITMAP
000000
000000
FFFFC0
FFFFC0
FFFFC0
0001C0
0003C0
000380
000780
000700
000F00
000E00
001E00
001C00
003C00
003800
007800
007000
00F000
00E000
01E000
01C000
03C000
038000
078000
070000
0F0000
0E0000
1E0000
1C0000
3C0000
380000
000000
000000
000000
000000
000000
000000
000000
000000
ENDCHAR
STARTCHAR char56
ENCODING 56
SWIDTH 1846 0
DWIDTH 26 0
BBX 20 40 2 -8
BITMAP
000000
000000
01F800
07FE00
1FFF80
3E07C0
3C03C0
7801E0
7000E0
7000E0
7000E0
3801C0
3C03C0
1E0780
0FFF00
07FE00
03FC00
07FE00
1FFF80
3F0FC0
7C03E0
F801F0
F000F0
E00070
E00070
F000F0
F000F0
F801F0
7E07E0
3FFFC0
1FFF80
07FE00
000000
000000
000000
000000
000000
000000
000000
000000
ENDCHAR
STARTCHAR char57
ENCODING 57
SWIDTH 1846 0
DWIDTH 26 0
BBX 20 40 3 -8
BITMAP
000000
000000
03FC00
0FFF00
1FFF80
3E07C0
7C03E0
7801E0
F000F0
F000F0
E00070
E00070
E00070
F000F0
F000F0
7801F0
7C03F0
3E07F0
1FFFF0
0FFF70
07FE70
0000F0
0000F0
0000E0
0000E0
0001E0
7001C0
7803C0
7E0780
3FFF80
1FFF00
07FC00
000000
000000
000000
000000
000000
000000
000000
000000
ENDCHAR
STARTCHAR char58
ENCODING 58
SWIDTH 497 0
DWIDTH 7 0
BBX 4 40 1 -8
BITMAP
00
00
00
00
00
00
00
00
00
00
00
00
00
00
00
60
F0
F0
60
00
00
00
00
00
00
00
00
00
60
F0
F0
60
00
00
00
00
00
00
00
00
ENDCHAR
STARTCHAR char59
ENCODING 59
SWIDTH 497 0
DWIDTH 7 0
BBX 4 40 1 -8
BITMAP
00
00
00
00
00
00
00
00
00
00
00
00
00
00
00
60
F0
F0
60
00
00
00
00
00
00
00
00
00
60
F0
F0
60
60
C0
C0
00
00
00
00
00
ENDCHAR
STARTCHAR char60
ENCODING 60
SWIDTH 1491 0
DWIDTH 21 0
BBX 19 40 0 -8
BITMAP
000000
000000
000000
000000
000000
000000
000000
000000
000000
000000
000000
000060
0001E0
0007E0
001F80
007E00
01F800
07E000
1F8000
7E0000
F80000
7E0000
1F8000
07E000
01F800
007E00
001F80
0007E0
0001E0
000060
000000
000000
000000
000000
000000
000000
000000
000000
000000
000000
ENDCHAR
STARTCHAR char61
ENCODING 61
SWIDTH 1065 0
DWIDTH 15 0
BBX 13 40 0 -8
BITMAP
0000
0000
0000
0000
0000
0000
0000
0000
0000
0000
0000
0000
0000
0000
0000
0000
0000
0000
FFF8
FFF8
FFF8
0000
0000
FFF8
FFF8
FFF8
0000
0000
0000
0000
0000
0000
0000
0000
0000
0000
0000
0000
0000
0000
ENDCHAR
STARTCHAR char62
ENCODING 62
SWIDTH 1491 0
DWIDTH 21 0
BBX 19 40 0 -8
BITMAP
000000
000000
000000
000000
000000
000000
000000
000000
000000
000000
000000
000000
C00000
F00000
FC0000
3F0000
0FC000
03F000
00FC00
003F00
000FC0
0003E0
000FC0
003F00
00FC00
03F000
0FC000
3F0000
FC0000
F00000
C00000
000000
000000
000000
000000
000000
000000
000000
000000
000000
ENDCHAR
STARTCHAR char63
ENCODING 63
SWIDTH 1349 0
DWIDTH 19 0
BBX 16 40 1 -8
BITMAP
0000
0000
0FF0
3FF8
7FFC
703E
E01E
C00F
C00F
F00F
F00F
701E
003E
007C
00F8
01F0
03E0
07C0
0780
0700
0700
0700
0700
0700
0200
0200
0000
0000
0700
0F80
0F80
0700
0000
0000
0000
0000
0000
0000
0000
0000
ENDCHAR
STARTCHAR char64
ENCODING 64
SWIDTH 1562 0
DWIDTH 22 0
BBX 20 40 0 -8
BITMAP
000000
000000
000000
000000
000000
000000
000000
000000
000000
000000
000000
000000
07FE00
1FFF80
1FFF80
3801E0
7000E0
61F870
E7FE70
C70E30
CF0F30
CE0730
CE0730
CE0730
CF0F70
C70F60
C7FFE0
C1FFC0
E00000
700000
3FFFF0
1FFFF0
000000
000000
000000
000000
000000
000000
000000
000000
ENDCHAR
STARTCHAR char65
ENCODING 65
SWIDTH 1775 0
DWIDTH 25 0
BBX 23 40 0 -8
BITMAP
000000
000000
003800
003800
007C00
007C00
00FE00
00FE00
00FE00
01C700
01C700
01C700
038380
038380
038380
0701C0
0701C0
0701C0
0E00E0
0FFFE0
0FFFE0
1FFFF0
1C0070
1C0070
380038
380038
38003C
70001C
70001C
F0001E
E0000E
E0000E
000000
000000
000000
000000
000000
000000
000000
000000
ENDCHAR
STARTCHAR char66
ENCODING 66
SWIDTH 1633 0
DWIDTH 23 0
BBX 20 40 1 -8
BITMAP
000000
000000
FFFF80
FFFFC0
FFFFE0
E007E0
E001F0
E000F0
E00070
E00070
E00070
E00070
E000F0
E001F0
F007E0
FFFFC0
FFFF80
FFFFC0
E007E0
E001E0
E000F0
E00070
E00070
E00070
E00070
E00070
E000F0
E001F0
E007E0
FFFFE0
FFFFC0
FFFF00
000000
000000
000000
000000
000000
000000
000000
000000
ENDCHAR
STARTCHAR char67
ENCODING 67
SWIDTH 1917 0
DWIDTH 27 0
BBX 24 40 1 -8
BITMAP
000000
000000
01FF80
07FFE0
0FFFF0
1F81FC
3E007C
3C003E
78001F
78000F
700007
F00000
F00000
E00000
E00000
E00000
E00000
E00000
E00000
E00000
E00000
F00000
F00007
F00007
78000F
78001F
7C003E
3E007C
3F81FC
1FFFF0
0FFFE0
03FF80
000000
000000
000000
000000
000000
000000
000000
000000
ENDCHAR
STARTCHAR char68
ENCODING 68
SWIDTH 1704 0
DWIDTH 24 0
BBX 21 40 1 -8
BITMAP
000000
000000
FFFE00
FFFF80
FFFFC0
E007E0
E001F0
E000F0
E00078
E00078
E00038
E00038
E00038
E00038
E00038
E00038
E00038
E00038
E00038
E00038
E00038
E00038
E00038
E00038
E00078
E00078
E000F0
E001F0
E007E0
FFFFC0
FFFF80
FFFE00
000000
000000
000000
000000
000000
000000
000000
000000
ENDCHAR
STARTCHAR char69
ENCODING 69
SWIDTH 1562 0
DWIDTH 22 0
BBX 19 40 1 -8
BITMAP
000000
000000
FFFFE0
FFFFE0
FFFFE0
E00000
E00000
E00000
E00000
E00000
E00000
E00000
E00000
E00000
E00000
FFFC00
FFFC00
FFFC00
E00000
E00000
E00000
E00000
E00000
E00000
E00000
E00000
E00000
E00000
E00000
FFFFE0
FFFFE0
FFFFE0
000000
000000
000000
000000
000000
000000
000000
000000
ENDCHAR
STARTCHAR char70
ENCODING 70
SWIDTH 1562 0
DWIDTH 22 0
BBX 19 40 1 -8
BITMAP
000000
000000
FFFFE0
FFFFE0
FFFFE0
E00000
E00000
E00000
E00000
E00000
E00000
E00000
E00000
E00000
E00000
FFFC00
FFFC00
FFFC00
E00000
E00000
E00000
E00000
E00000
E00000
E00000
E00000
E00000
E00000
E00000
E00000
E00000
E00000
000000
000000
000000
000000
000000
000000
000000
000000
ENDCHAR
STARTCHAR char71
ENCODING 71
SWIDTH 1846 0
DWIDTH 26 0
BBX 23 40 1 -8
BITMAP
000000
000000
07FFC0
1FFFF0
3FFFF8
3E01FC
78003E
70001E
F0000E
F0000E
E0000E
E00000
E00000
E00000
E00000
E00000
E00000
E00000
E00FFE
E00FFE
E00FFE
E0000E
E0000E
E0000E
F0001E
F0001E
70003E
78007E
3E01FE
3FFFEE
1FFFCE
07FF8E
000000
000000
000000
000000
000000
000000
000000
000000
ENDCHAR
STARTCHAR char72
ENCODING 72
SWIDTH 1633 0
DWIDTH 23 0
BBX 20 40 1 -8
BITMAP
000000
000000
E00070
E00070
E00070
E00070
E00070
E00070
E00070
E00070
E00070
E00070
E00070
E00070
E00070
E00070
FFFFF0
FFFFF0
FFFFF0
E00070
E00070
E00070
E00070
E00070
E00070
E00070
E00070
E00070
E00070
E00070
E00070
E00070
000000
000000
000000
000000
000000
000000
000000
000000
ENDCHAR
STARTCHAR char73
ENCODING 73
SWIDTH 710 0
DWIDTH 10 0
BBX 3 40 3 -8
BITMAP
00
00
E0
E0
E0
E0
E0
E0
E0
E0
E0
E0
E0
E0
E0
E0
E0
E0
E0
E0
E0
E0
E0
E0
E0
E0
E0
E0
E0
E0
E0
E0
00
00
00
00
00
00
00
00
ENDCHAR
STARTCHAR char74
ENCODING 74
SWIDTH 1278 0
DWIDTH 18 0
BBX 16 40 0 -8
BITMAP
0000
0000
0007
0007
0007
0007
0007
0007
0007
0007
0007
0007
0007
0007
0007
0007
0007
0007
0007
0007
0007
0007
0007
0007
0007
0007
E007
F00F
F81F
7FFE
3FFC
1FF8
0000
0000
0000
0000
0000
0000
0000
0000
ENDCHAR
STARTCHAR char75
ENCODING 75
SWIDTH 1562 0
DWIDTH 22 0
BBX 19 40 1 -8
BITMAP
000000
000000
E000C0
E001C0
E003C0
E007C0
E00F80
E01F00
E03E00
E07C00
E0F800
E1F000
E3E000
E7C000
EF8000
FF0000
FE0000
FF0000
EF8000
E7C000
E3E000
E1F000
E0F800
E07C00
E03E00
E01F00
E00F80
E007C0
E003E0
E001E0
E000E0
E00060
000000
000000
000000
000000
000000
000000
000000
000000
ENDCHAR
STARTCHAR char76
ENCODING 76
SWIDTH 1420 0
DWIDTH 20 0
BBX 17 40 1 -8
BITMAP
000000
000000
E00000
E00000
E00000
E00000
E00000
E00000
E00000
E00000
E00000
E00000
E00000
E00000
E00000
E00000
E00000
E00000
E00000
E00000
E00000
E00000
E00000
E00000
E00000
E00000
E00000
E00000
E00000
FFFF80
FFFF80
FFFF80
000000
000000
000000
000000
000000
000000
000000
000000
ENDCHAR
STARTCHAR char77
ENCODING 77
SWIDTH 2059 0
DWIDTH 29 0
BBX 26 40 1 -8
BITMAP
00000000
00000000
C00000C0
E00001C0
E00001C0
F00003C0
F00003C0
F80007C0
F80007C0
FC000FC0
FC000FC0
FE001FC0
EE001DC0
EF003DC0
E70039C0
E78079C0
E38071C0
E3C0F1C0
E1C0E1C0
E1E1E1C0
E0E1C1C0
E0F3C1C0
E07381C0
E07F81C0
E03F01C0
E03F01C0
E01E01C0
E01E01C0
E01E01C0
E00C01C0
E00001C0
E00001C0
00000000
00000000
00000000
00000000
00000000
00000000
00000000
00000000
ENDCHAR
STARTCHAR char78
ENCODING 78
SWIDTH 1633 0
DWIDTH 23 0
BBX 20 40 1 -8
BITMAP
000000
000000
F00070
F00070
F80070
F80070
FC0070
FC0070
EE0070
EE0070
E70070
E70070
E38070
E38070
E1C070
E1C070
E0E070
E0E070
E07070
E07070
E03870
E03870
E01C70
E01C70
E00E70
E00E70
E00770
E00770
E003F0
E003F0
E001F0
E001F0
000000
000000
000000
000000
000000
000000
000000
000000
ENDCHAR
STARTCHAR char79
ENCODING 79
SWIDTH 1846 0
DWIDTH 26 0
BBX 23 40 1 -8
BITMAP
000000
000000
01FF00
07FFC0
0FFFE0
1F83F0
1E00F0
3C0078
380078
78003C
70003C
70001C
F0001E
F0001E
E0000E
E0000E
E0000E
E0000E
E0000E
E0000E
F0001E
F0001E
F0001C
70001C
78003C
380038
3C0078
1E00F0
1F83F0
0FFFE0
07FFC0
01FF00
000000
000000
000000
000000
000000
000000
000000
000000
ENDCHAR
STARTCHAR char80
ENCODING 80
SWIDTH 1633 0
DWIDTH 23 0
BBX 20 40 2 -8
BITMAP
000000
000000
FFFF00
FFFFC0
FFFFE0
E003E0
E000F0
E000F0
E00070
E00070
E00070
E00070
E00070
E000F0
E000F0
E003E0
FFFFE0
FFFFC0
FFFF00
E00000
E00000
E00000
E00000
E00000
E00000
E00000
E00000
E00000
E00000
E00000
E00000
E00000
000000
000000
000000
000000
000000
000000
000000
000000
ENDCHAR
STARTCHAR char81
ENCODING 81
SWIDTH 1846 0
DWIDTH 26 0
BBX 23 40 1 -8
BITMAP
000000
000000
01FF00
07FFC0
0FFFE0
1F83F0
1E00F0
3C0078
380038
78003C
70001C
70001C
F0001E
F0001E
E0000E
E0000E
E0000E
E0000E
E0000E
E0000E
F0001E
F0001E
F0001C
70001C
78003C
380038
3C0078
1E00F0
1F83F0
0FFFE0
07FFC0
01FF00
000F00
000F80
0007E0
0003F8
0001FC
00007C
000000
000000
ENDCHAR
STARTCHAR char82
ENCODING 82
SWIDTH 1775 0
DWIDTH 25 0
BBX 20 40 2 -8
BITMAP
000000
000000
FFFF00
FFFFC0
FFFFE0
E003E0
E000F0
E000F0
E00070
E00070
E00070
E00070
E00070
E000F0
E000F0
E003E0
FFFFE0
FFFFC0
FFFF00
E0F000
E07800
E07800
E03C00
E01E00
E01E00
E00F00
E00780
E00780
E003C0
E001E0
E001E0
E000E0
000000
000000
000000
000000
000000
000000
000000
000000
ENDCHAR
STARTCHAR char83
ENCODING 83
SWIDTH 1562 0
DWIDTH 22 0
BBX 19 40 1 -8
BITMAP
000000
000000
03F800
0FFE00
3FFF80
7E0F80
F803C0
F001E0
F001E0
E00000
E00000
E00000
F00000
F80000
7E0000
3FF800
1FFE00
07FF80
001F80
0007C0
0003E0
0001E0
0000E0
0000E0
E000E0
F001E0
F001E0
7803E0
3E0FC0
3FFF80
1FFF00
03F800
000000
000000
000000
000000
000000
000000
000000
000000
ENDCHAR
STARTCHAR char84
ENCODING 84
SWIDTH 1633 0
DWIDTH 23 0
BBX 21 40 0 -8
BITMAP
000000
000000
FFFFF8
FFFFF8
FFFFF8
007000
007000
007000
007000
007000
007000
007000
007000
007000
007000
007000
007000
007000
007000
007000
007000
007000
007000
007000
007000
007000
007000
007000
007000
007000
007000
007000
000000
000000
000000
000000
000000
000000
000000
000000
ENDCHAR
STARTCHAR char85
ENCODING 85
SWIDTH 1633 0
DWIDTH 23 0
BBX 20 40 1 -8
BITMAP
000000
000000
E00070
E00070
E00070
E00070
E00070
E00070
E00070
E00070
E00070
E00070
E00070
E00070
E00070
E00070
E00070
E00070
E00070
E00070
E00070
E00070
E00070
E00070
E00070
F000F0
F000F0
7C03E0
7FFFE0
1FFF80
0FFF00
000000
000000
000000
000000
000000
000000
000000
000000
000000
ENDCHAR
STARTCHAR char86
ENCODING 86
SWIDTH 1917 0
DWIDTH 27 0
BBX 25 40 0 -8
BITMAP
00000000
00000000
E0000380
E0000380
F0000780
70000700
70000700
78000F00
38000E00
3C001E00
1C001C00
1C001C00
1E003C00
0E003800
0F007800
07007000
07007000
0780F000
0380E000
03C1E000
01C1C000
01C1C000
01E3C000
00E38000
00F78000
00770000
00770000
007F0000
003E0000
003E0000
001C0000
001C0000
00000000
00000000
00000000
00000000
00000000
00000000
00000000
00000000
ENDCHAR
STARTCHAR char87
ENCODING 87
SWIDTH 2627 0
DWIDTH 37 0
BBX 35 40 0 -8
BITMAP
0000000000
0000000000
E001F000E0
E001F000E0
E001F000E0
F001F001E0
F003F801E0
7003B801C0
7803B803C0
7803B803C0
7807BC03C0
38071C0380
38071C0380
3C071C0780
3C0F1E0780
1C0E0E0700
1C0E0E0700
1E0E0E0F00
1E1E0F0E00
0E1C070E00
0E1C070E00
0F1C071E00
073C079C00
0738039C00
0738039C00
07B803BC00
03F803F800
03F001F800
03F001F800
01F001F000
01E000F000
01E000F000
0000000000
0000000000
0000000000
0000000000
0000000000
0000000000
0000000000
0000000000
ENDCHAR
STARTCHAR char88
ENCODING 88
SWIDTH 1917 0
DWIDTH 27 0
BBX 25 40 0 -8
BITMAP
00000000
00000000
F0000780
F0000780
78000F00
3C001F00
3C001E00
1E003C00
0F007800
0780F000
0780F000
03C1E000
01E3C000
00F78000
007F0000
007F0000
003E0000
007F0000
007F0000
00F78000
01E3C000
03E3E000
03C1E000
0780F000
0F007800
1F007C00
1E003C00
3C001E00
78000F00
78000F00
F0000780
F0000780
00000000
00000000
00000000
00000000
00000000
00000000
00000000
00000000
ENDCHAR
STARTCHAR char89
ENCODING 89
SWIDTH 1917 0
DWIDTH 27 0
BBX 25 40 0 -8
BITMAP
00000000
00000000
F0000780
F0000780
78000F00
3C001F00
3C001E00
1E003C00
0F007800
0F80F800
0780F000
03C1E000
01E3C000
00F78000
00FF8000
007F0000
003E0000
003E0000
001C0000
001C0000
001C0000
001C0000
001C0000
001C0000
001C0000
001C0000
001C0000
001C0000
001C0000
001C0000
001C0000
001C0000
00000000
00000000
00000000
00000000
00000000
00000000
00000000
00000000
ENDCHAR
STARTCHAR char90
ENCODING 90
SWIDTH 1704 0
DWIDTH 24 0
BBX 21 40 0 -8
BITMAP
000000
000000
FFFFF8
FFFFF8
FFFFF8
000078
000078
0000F0
0001E0
0001C0
0003C0
000780
000F00
000E00
001E00
003C00
007800
007000
00F000
01E000
03C000
038000
078000
0F0000
1E0000
1C0000
3C0000
780000
F00000
FFFFF8
FFFFF8
FFFFF8
000000
000000
000000
000000
000000
000000
000000
000000
ENDCHAR
STARTCHAR char91
ENCODING 91
SWIDTH 710 0
DWIDTH 10 0
BBX 7 40 1 -8
BITMAP
00
00
FE
FE
E0
E0
E0
E0
E0
E0
E0
E0
E0
E0
E0
E0
E0
E0
E0
E0
E0
E0
E0
E0
E0
E0
E0
E0
E0
E0
E0
E0
FE
FE
00
00
00
00
00
00
ENDCHAR
STARTCHAR char92
ENCODING 92
SWIDTH 1065 0
DWIDTH 15 0
BBX 12 40 0 -8
BITMAP
0000
0000
E000
E000
E000
F000
7000
7000
7800
3800
3800
3C00
1C00
1C00
1E00
0E00
0E00
0F00
0700
0700
0780
0380
0380
03C0
01C0
01C0
01E0
00E0
00E0
00F0
0070
0070
0070
0000
0000
0000
0000
0000
0000
0000
ENDCHAR
STARTCHAR char93
ENCODING 93
SWIDTH 781 0
DWIDTH 11 0
BBX 7 40 2 -8
BITMAP
00
00
FE
FE
0E
0E
0E
0E
0E
0E
0E
0E
0E
0E
0E
0E
0E
0E
0E
0E
0E
0E
0E
0E
0E
0E
0E
0E
0E
0E
0E
0E
FE
FE
00
00
00
00
00
00
ENDCHAR
STARTCHAR char95
ENCODING 95
SWIDTH 1349 0
DWIDTH 19 0
BBX 19 40 0 -8
BITMAP
000000
000000
000000
000000
000000
000000
000000
000000
000000
000000
000000
000000
000000
000000
000000
000000
000000
000000
000000
000000
000000
000000
000000
000000
000000
000000
000000
000000
000000
000000
000000
000000
000000
000000
FFFFE0
FFFFE0
FFFFE0
000000
000000
000000
ENDCHAR
STARTCHAR char96
ENCODING 96
SWIDTH 639 0
DWIDTH 9 0
BBX 7 40 0 -8
BITMAP
00
00
00
1C
7E
7E
FE
9E
8C
C0
40
60
30
18
08
00
00
00
00
00
00
00
00
00
00
00
00
00
00
00
00
00
00
00
00
00
00
00
00
00
ENDCHAR
STARTCHAR char97
ENCODING 97
SWIDTH 1349 0
DWIDTH 19 0
BBX 16 40 1 -8
BITMAP
0000
0000
0000
0000
0000
0000
0000
0000
0000
0000
0000
0FF0
3FF8
7FFC
F83E
E00E
E00E
0007
0FE7
3FFF
7FFF
781F
F00F
E007
E007
E007
E00F
E01F
F03F
7FFF
3FF7
1FE7
0000
0000
0000
0000
0000
0000
0000
0000
ENDCHAR
STARTCHAR char98
ENCODING 98
SWIDTH 1420 0
DWIDTH 20 0
BBX 17 40 1 -8
BITMAP
000000
000000
E00000
E00000
E00000
E00000
E00000
E00000
E00000
E00000
E00000
E00000
E3F000
EFFC00
FFFE00
FC1E00
F80F00
F00780
F00780
E00380
E00380
E00380
E00380
E00380
E00380
E00380
F00780
F80F00
FC1F00
FFFE00
EFFC00
E3F000
000000
000000
000000
000000
000000
000000
000000
000000
ENDCHAR
STARTCHAR char99
ENCODING 99
SWIDTH 1420 0
DWIDTH 20 0
BBX 17 40 1 -8
BITMAP
000000
000000
000000
000000
000000
000000
000000
000000
000000
000000
000000
000000
03F800
1FFE00
3FFF00
3E1F80
780780
700380
F00000
F00000
E00000
E00000
E00000
E00000
F00000
F00000
F00380
780780
7E1F80
3FFF00
1FFE00
03F800
000000
000000
000000
000000
000000
000000
000000
000000
ENDCHAR
STARTCHAR char100
ENCODING 100
SWIDTH 1420 0
DWIDTH 20 0
BBX 17 40 1 -8
BITMAP
000000
000000
000380
000380
000380
000380
000380
000380
000380
000380
000380
000380
07E380
1FFB80
3FFF80
3C1F80
780F80
F00780
F00780
E00380
E00380
E00380
E00380
E00380
E00380
E00380
F00780
780F80
7C1F80
3FFF80
1FFB80
07E380
000000
000000
000000
000000
000000
000000
000000
000000
ENDCHAR
STARTCHAR char101
ENCODING 101
SWIDTH 1491 0
DWIDTH 21 0
BBX 19 40 0 -8
BITMAP
000000
000000
000000
000000
000000
000000
000000
000000
000000
000000
000000
03F800
0FFE00
1FFF00
3E0F80
7803C0
7001C0
F001E0
E000E0
E000E0
FFFFE0
FFFFE0
FFFFE0
E00000
E00000
F00000
F000E0
7801E0
7E07C0
3FFF80
1FFF00
07FC00
000000
000000
000000
000000
000000
000000
000000
000000
ENDCHAR
STARTCHAR char102
ENCODING 102
SWIDTH 923 0
DWIDTH 13 0
BBX 11 40 0 -8
BITMAP
0000
0000
03E0
07E0
0FE0
0F00
1E00
1C00
1C00
1C00
1C00
FFE0
FFE0
FFE0
1C00
1C00
1C00
1C00
1C00
1C00
1C00
1C00
1C00
1C00
1C00
1C00
1C00
1C00
1C00
1C00
1C00
1C00
0000
0000
0000
0000
0000
0000
0000
0000
ENDCHAR
STARTCHAR char103
ENCODING 103
SWIDTH 1562 0
DWIDTH 22 0
BBX 19 40 1 -8
BITMAP
000000
000000
000000
000000
000000
000000
000000
000000
000000
000000
000000
0FF1E0
1FFBE0
3FFFC0
781E00
F00F00
E00700
E00700
E00700
E00700
F00F00
F81F00
7FFE00
3FFC00
3FF800
7C0000
780000
780000
3FFC00
3FFF00
7FFFC0
7C07C0
F001E0
E000E0
E000E0
F001E0
7C07C0
7FFFC0
3FFF80
0FFE00
ENDCHAR
STARTCHAR char104
ENCODING 104
SWIDTH 1349 0
DWIDTH 19 0
BBX 16 40 1 -8
BITMAP
0000
0000
E000
E000
E000
E000
E000
E000
E000
E000
E000
E3F0
E7F8
EFFC
FE3E
FC1F
F80F
F00F
F007
E007
E007
E007
E007
E007
E007
E007
E007
E007
E007
E007
E007
E007
0000
0000
0000
0000
0000
0000
0000
0000
ENDCHAR
STARTCHAR char105
ENCODING 105
SWIDTH 639 0
DWIDTH 9 0
BBX 3 40 3 -8
BITMAP
00
00
E0
E0
E0
E0
00
00
00
00
00
E0
E0
E0
E0
E0
E0
E0
E0
E0
E0
E0
E0
E0
E0
E0
E0
E0
E0
E0
E0
E0
00
00
00
00
00
00
00
00
ENDCHAR
STARTCHAR char106
ENCODING 106
SWIDTH 710 0
DWIDTH 10 0
BBX 8 40 0 -8
BITMAP
00
00
07
07
07
07
00
00
00
00
00
07
07
07
07
07
07
07
07
07
07
07
07
07
07
07
07
07
07
07
07
07
07
07
07
0F
1F
FE
FE
F8
ENDCHAR
STARTCHAR char107
ENCODING 107
SWIDTH 1349 0
DWIDTH 19 0
BBX 16 40 1 -8
BITMAP
0000
0000
E000
E000
E000
E000
E000
E000
E000
E000
E000
E01C
E03C
E078
E0F0
E1E0
E3C0
E780
EF00
FF00
FF80
FFC0
F9E0
F0F0
E070
E078
E03C
E01E
E01E
E00F
E007
E007
0000
0000
0000
0000
0000
0000
0000
0000
ENDCHAR
STARTCHAR char108
ENCODING 108
SWIDTH 639 0
DWIDTH 9 0
BBX 3 40 3 -8
BITMAP
00
00
00
E0
E0
E0
E0
E0
E0
E0
E0
E0
E0
E0
E0
E0
E0
E0
E0
E0
E0
E0
E0
E0
E0
E0
E0
E0
E0
E0
E0
E0
00
00
00
00
00
00
00
00
ENDCHAR
STARTCHAR char109
ENCODING 109
SWIDTH 1988 0
DWIDTH 28 0
BBX 25 40 1 -8
BITMAP
00000000
00000000
00000000
00000000
00000000
00000000
00000000
00000000
00000000
00000000
00000000
00000000
E3C0F000
E7E1FC00
EFF1FE00
FE7BCF00
FC3F8700
F83F0780
F81F0380
F01E0380
E01C0380
E01C0380
E01C0380
E01C0380
E01C0380
E01C0380
E01C0380
E01C0380
E01C0380
E01C0380
E01C0380
E01C0380
00000000
00000000
00000000
00000000
00000000
00000000
00000000
00000000
ENDCHAR
STARTCHAR char110
ENCODING 110
SWIDTH 1349 0
DWIDTH 19 0
BBX 16 40 1 -8
BITMAP
0000
0000
0000
0000
0000
0000
0000
0000
0000
0000
0000
0000
E3F0
EFFC
EFFE
FE1E
FC0F
F80F
F007
F007
E007
E007
E007
E007
E007
E007
E007
E007
E007
E007
E007
E007
0000
0000
0000
0000
0000
0000
0000
0000
ENDCHAR
STARTCHAR char111
ENCODING 111
SWIDTH 1349 0
DWIDTH 19 0
BBX 17 40 0 -8
BITMAP
000000
000000
000000
000000
000000
000000
000000
000000
000000
000000
000000
07F000
1FFC00
3FFE00
7C1F00
780F00
F00780
F00780
E00380
E00380
E00380
E00380
E00380
E00380
E00380
F00780
F00780
780F00
7C1F00
3FFE00
1FFC00
07F000
000000
000000
000000
000000
000000
000000
000000
000000
ENDCHAR
STARTCHAR char112
ENCODING 112
SWIDTH 1491 0
DWIDTH 21 0
BBX 18 40 1 -8
BITMAP
000000
000000
000000
000000
000000
000000
000000
000000
000000
000000
000000
E3F800
E7FC00
EFFF00
FE1F00
FC0F80
F80780
F003C0
F003C0
E001C0
E001C0
E001C0
E001C0
E001C0
F003C0
F003C0
F80780
FC0F80
FE1F00
EFFF00
E7FC00
E3F800
E00000
E00000
E00000
E00000
E00000
E00000
E00000
E00000
ENDCHAR
STARTCHAR char113
ENCODING 113
SWIDTH 1491 0
DWIDTH 21 0
BBX 18 40 1 -8
BITMAP
000000
000000
000000
000000
000000
000000
000000
000000
000000
000000
000000
07F1C0
0FF9C0
3FFDC0
3E1FC0
7C0FC0
7807C0
F003C0
F003C0
E001C0
E001C0
E001C0
E001C0
E001C0
F003C0
F003C0
7807C0
7C0FC0
3E1FC0
3FFDC0
0FF9C0
07F1C0
0001C0
0001C0
0001C0
0001C0
0001C0
0001C0
0001C0
0001C0
ENDCHAR
STARTCHAR char114
ENCODING 114
SWIDTH 1065 0
DWIDTH 15 0
BBX 12 40 1 -8
BITMAP
0000
0000
0000
0000
0000
0000
0000
0000
0000
0000
0000
0000
E1F0
E3F0
E7F0
EF00
FE00
FC00
F800
F000
E000
E000
E000
E000
E000
E000
E000
E000
E000
E000
E000
E000
0000
0000
0000
0000
0000
0000
0000
0000
ENDCHAR
STARTCHAR char115
ENCODING 115
SWIDTH 1278 0
DWIDTH 18 0
BBX 15 40 1 -8
BITMAP
0000
0000
0000
0000
0000
0000
0000
0000
0000
0000
0000
0FE0
3FF8
7FFC
FC7E
F01E
E00E
E000
F000
F800
7FC0
1FF8
07FC
003E
001E
E00E
F00E
F01E
FC7E
7FFC
3FF8
0FE0
0000
0000
0000
0000
0000
0000
0000
0000
ENDCHAR
STARTCHAR char116
ENCODING 116
SWIDTH 994 0
DWIDTH 14 0
BBX 12 40 0 -8
BITMAP
0000
0000
0E00
0E00
0E00
0E00
0E00
0E00
0E00
0E00
FFF0
FFF0
FFF0
0E00
0E00
0E00
0E00
0E00
0E00
0E00
0E00
0E00
0E00
0E00
0E00
0E00
0E00
0F00
0F00
0FF0
07F0
03F0
0000
0000
0000
0000
0000
0000
0000
0000
ENDCHAR
STARTCHAR char117
ENCODING 117
SWIDTH 1420 0
DWIDTH 20 0
BBX 17 40 1 -8
BITMAP
000000
000000
000000
000000
000000
000000
000000
000000
000000
000000
000000
E00380
E00380
E00380
E00380
E00380
E00380
E00380
E00380
E00380
E00380
E00380
E00380
E00380
E00380
E00380
F00780
F00F80
7C3F80
3FFF80
1FFB80
07E380
000000
000000
000000
000000
000000
000000
000000
000000
ENDCHAR
STARTCHAR char118
ENCODING 118
SWIDTH 1491 0
DWIDTH 21 0
BBX 19 40 0 -8
BITMAP
000000
000000
000000
000000
000000
000000
000000
000000
000000
000000
000000
C00060
E000E0
E000E0
7001C0
7001C0
380380
380380
1C0700
1C0700
0E0E00
0E0E00
071C00
071C00
03B800
03B800
01F000
01F000
00E000
00E000
004000
004000
000000
000000
000000
000000
000000
000000
000000
000000
ENDCHAR
STARTCHAR char119
ENCODING 119
SWIDTH 1846 0
DWIDTH 26 0
BBX 24 40 0 -8
BITMAP
000000
000000
000000
000000
000000
000000
000000
000000
000000
000000
000000
000000
000000
F0180F
70180E
70180E
783C1E
383C1C
383C1C
3C7E3C
1C7E38
1C7E38
1EFF78
0EE770
0FE7F0
0FE7F0
07C3E0
07C3E0
07C3E0
0381C0
0381C0
0381C0
000000
000000
000000
000000
000000
000000
000000
000000
ENDCHAR
STARTCHAR char120
ENCODING 120
SWIDTH 1207 0
DWIDTH 17 0
BBX 15 40 0 -8
BITMAP
0000
0000
0000
0000
0000
0000
0000
0000
0000
0000
0000
701C
701C
3838
3838
1C70
1C70
0EE0
0EE0
07C0
07C0
0380
07C0
0FE0
0EE0
1C70
1C70
3838
3838
701C
701C
E00E
0000
0000
0000
0000
0000
0000
0000
0000
ENDCHAR
STARTCHAR char121
ENCODING 121
SWIDTH 1562 0
DWIDTH 22 0
BBX 19 40 1 -8
BITMAP
000000
000000
000000
000000
000000
000000
000000
000000
000000
000000
000000
E000E0
E000E0
F001E0
F001E0
7803C0
7803C0
3C0780
3C0780
1E0F00
1E0F00
0F1E00
0F1E00
07BC00
07BC00
03F800
03F800
01F000
01F000
00E000
01E000
01C000
03C000
078000
0F0000
1E0000
FC0000
F80000
F80000
000000
ENDCHAR
STARTCHAR char122
ENCODING 122
SWIDTH 1349 0
DWIDTH 19 0
BBX 16 40 1 -8
BITMAP
0000
0000
0000
0000
0000
0000
0000
0000
0000
0000
0000
FFFF
FFFF
FFFF
000F
001F
003E
007C
00F8
01F0
03E0
07C0
0F80
1F00
3E00
7C00
F800
F000
E000
FFFF
FFFF
FFFF
0000
0000
0000
0000
0000
0000
0000
0000
ENDCHAR
STARTCHAR char123
ENCODING 123
SWIDTH 994 0
DWIDTH 14 0
BBX 11 40 0 -8
BITMAP
0000
0000
07E0
0F00
1C00
1800
1800
1C00
0E00
0E00
0E00
0E00
0E00
1C00
1800
3000
7000
F000
7000
3000
1800
1C00
0E00
0E00
0E00
0E00
0E00
1C00
1800
1800
1C00
0F00
07E0
0000
0000
0000
0000
0000
0000
0000
ENDCHAR
STARTCHAR char124
ENCODING 124
SWIDTH 426 0
DWIDTH 6 0
BBX 3 40 1 -8
BITMAP
00
00
E0
E0
E0
E0
E0
E0
E0
E0
E0
E0
E0
E0
E0
E0
E0
E0
E0
E0
E0
E0
E0
E0
E0
E0
E0
E0
E0
E0
E0
E0
E0
E0
E0
00
00
00
00
00
ENDCHAR
STARTCHAR char125
ENCODING 125
SWIDTH 923 0
DWIDTH 13 0
BBX 11 40 0 -8
BITMAP
0000
0000
FC00
1E00
0700
0300
0300
0700
0E00
0E00
0E00
0E00
0E00
0700
0300
0180
01C0
01E0
01C0
0180
0300
0700
0E00
0E00
0E00
0E00
0E00
0700
0300
0300
0700
1E00
FC00
0000
0000
0000
0000
0000
0000
0000
ENDCHAR
STARTCHAR char126
ENCODING 126
SWIDTH 1207 0
DWIDTH 17 0
BBX 15 40 0 -8
BITMAP
0000
0000
0000
0000
0000
0000
0000
0000
0000
0000
0000
0000
0000
0000
0000
0000
0000
0000
1C06
3E06
7F06
7F8E
E7CE
E3FC
C1FC
C0F8
C070
0000
0000
0000
0000
0000
0000
0000
0000
0000
0000
0000
0000
0000
ENDCHAR
ENDFONT
